<svg width="189" height="48" viewBox="0 0 189 48" fill="none" xmlns="http://www.w3.org/2000/svg">
<path d="M82.2 32L75.116 12.4H71.252L64.14 32H67.64L69.012 28.052H77.356L78.728 32H82.2ZM73.184 16.18L76.292 25.028H70.076L73.184 16.18ZM91.5702 12.036C87.4262 11.784 85.2422 13.884 85.2422 17.72V18H83.1142V20.912H85.2422V32H88.2662V20.912H91.5702V18H88.2662V17.72C88.2662 15.676 89.3582 14.752 91.5702 14.948V12.036ZM96.9236 18H93.8996V32H96.9236V24.944C96.9236 23.516 97.3436 22.48 98.2116 21.864C99.0796 21.22 100.088 20.94 101.236 21.024V17.748C99.1356 17.748 97.6796 18.616 96.9236 20.352V18ZM106.886 15.34C107.67 14.556 107.67 13.38 106.914 12.624C106.158 11.84 104.926 11.84 104.17 12.624C103.414 13.38 103.414 14.556 104.17 15.34C104.954 16.096 106.13 16.096 106.886 15.34ZM107.054 32V18H104.03V32H107.054ZM122.213 19.988C121.065 18.42 119.441 17.636 117.313 17.636C115.381 17.636 113.757 18.336 112.385 19.764C111.013 21.192 110.341 22.928 110.341 25C110.341 27.044 111.013 28.808 112.385 30.236C113.757 31.664 115.381 32.364 117.313 32.364C119.441 32.364 121.065 31.58 122.213 29.984V32H125.237V18H122.213V19.988ZM114.625 28.22C113.785 27.352 113.365 26.288 113.365 25C113.365 23.712 113.785 22.648 114.625 21.808C115.465 20.94 116.529 20.52 117.789 20.52C119.049 20.52 120.113 20.94 120.953 21.808C121.793 22.648 122.213 23.712 122.213 25C122.213 26.288 121.793 27.352 120.953 28.22C120.113 29.06 119.049 29.48 117.789 29.48C116.529 29.48 115.465 29.06 114.625 28.22ZM136.686 17.636C134.698 17.636 133.27 18.364 132.346 19.792V18H129.322V32H132.346V24.496C132.346 21.78 133.774 20.464 135.902 20.464C137.834 20.464 139.038 21.612 139.038 23.712V32H142.062V23.404C142.062 19.82 139.906 17.636 136.686 17.636ZM148.594 21.864C148.594 20.884 149.49 20.38 150.638 20.38C151.898 20.38 152.794 20.912 153.27 21.976L155.818 20.548C154.838 18.728 152.962 17.636 150.638 17.636C149.182 17.636 147.95 18.028 146.97 18.812C145.99 19.596 145.514 20.632 145.514 21.92C145.458 24.86 148.286 25.7 150.386 26.232C151.87 26.596 153.046 27.128 153.046 28.024C153.046 29.06 152.262 29.592 150.666 29.592C149.07 29.592 148.034 28.92 147.558 27.576L144.954 29.088C145.85 31.132 147.894 32.364 150.666 32.364C152.234 32.364 153.522 31.972 154.558 31.216C155.594 30.46 156.126 29.396 156.126 28.052C156.182 25.056 153.382 24.16 151.226 23.684C149.77 23.264 148.594 22.788 148.594 21.864ZM165.172 24.86L171.332 18H167.636L162.204 24.188V12.4H159.18V32H162.204V25.532L167.944 32H171.556L165.172 24.86ZM184.117 19.988C182.969 18.42 181.345 17.636 179.217 17.636C177.285 17.636 175.661 18.336 174.289 19.764C172.917 21.192 172.245 22.928 172.245 25C172.245 27.044 172.917 28.808 174.289 30.236C175.661 31.664 177.285 32.364 179.217 32.364C181.345 32.364 182.969 31.58 184.117 29.984V32H187.141V18H184.117V19.988ZM176.529 28.22C175.689 27.352 175.269 26.288 175.269 25C175.269 23.712 175.689 22.648 176.529 21.808C177.369 20.94 178.433 20.52 179.693 20.52C180.953 20.52 182.017 20.94 182.857 21.808C183.697 22.648 184.117 23.712 184.117 25C184.117 26.288 183.697 27.352 182.857 28.22C182.017 29.06 180.953 29.48 179.693 29.48C178.433 29.48 177.369 29.06 176.529 28.22Z" fill="white"/>
<circle cx="16" cy="24" r="16" fill="#98C3E8"/>
<circle cx="32" cy="24" r="15" fill="white" stroke="#316099" stroke-width="2"/>
<path d="M38.3 31L33.38 17H29.96L25.06 31H28.04L28.88 28.48H34.46L35.3 31H38.3ZM31.68 20.18L33.6 25.9H29.76L31.68 20.18Z" fill="#316099"/>
</svg>
