<?xml version="1.0" standalone="no"?>
<!DOCTYPE svg PUBLIC "-//W3C//DTD SVG 20010904//EN"
 "http://www.w3.org/TR/2001/REC-SVG-20010904/DTD/svg10.dtd">
<svg version="1.0" xmlns="http://www.w3.org/2000/svg"
 width="700.000000pt" height="700.000000pt" viewBox="0 0 700.000000 700.000000"
 preserveAspectRatio="xMidYMid meet">
<metadata>
Created by potrace 1.11, written by Peter Selinger 2001-2013
</metadata>
<g transform="translate(0.000000,700.000000) scale(0.100000,-0.100000)"
fill="#000000" stroke="none">
<path d="M2327 5835 c-1 -1 -60 -5 -132 -8 -71 -4 -141 -9 -155 -11 -14 -3
-43 -7 -65 -10 -204 -30 -449 -106 -652 -203 -561 -268 -1007 -774 -1201
-1363 -46 -139 -49 -149 -62 -215 -7 -33 -13 -64 -15 -70 -31 -146 -40 -246
-39 -460 0 -214 5 -270 40 -450 71 -370 254 -750 502 -1045 380 -453 937 -753
1509 -815 35 -4 75 -9 90 -11 45 -6 333 -5 393 1 326 36 584 112 858 251 l103
52 102 -53 c96 -50 314 -142 355 -150 11 -2 50 -12 88 -23 38 -11 96 -25 129
-32 33 -6 71 -14 85 -17 14 -3 36 -7 50 -9 14 -2 43 -6 65 -10 63 -10 484 -14
545 -4 30 5 73 11 95 14 59 7 182 34 266 57 41 11 79 21 84 23 71 19 233 85
338 138 141 70 235 128 362 223 401 300 690 715 838 1205 31 102 41 142 63
265 2 17 7 41 9 55 13 67 20 190 20 335 0 207 -12 334 -44 475 -5 25 -12 58
-15 75 -16 87 -94 308 -152 432 -24 50 -44 94 -44 97 0 10 -96 167 -158 256
-127 185 -334 403 -497 522 -5 4 -23 18 -40 31 -195 152 -568 327 -815 382
-84 19 -227 44 -275 50 -33 3 -73 8 -90 10 -36 5 -350 6 -385 1 -14 -2 -56 -7
-95 -11 -245 -24 -569 -125 -800 -248 l-80 -43 -153 73 c-290 139 -546 207
-857 229 -146 9 -165 10 -168 9z"/>
</g>
</svg>
